<svg width="26" height="14" viewBox="0 0 26 14" fill="none" xmlns="http://www.w3.org/2000/svg">
<path d="M25.187 2.47617H0.812246C0.363731 2.47617 -0.000226974 1.92145 -0.000226974 1.23809C-0.000226974 0.554618 0.3638 0 0.812246 0H25.187C25.6356 0 25.9995 0.554721 25.9995 1.23809C25.9995 1.92145 25.6355 2.47617 25.187 2.47617Z" fill="#1A1A18"/>
<path d="M0.812735 5.6875H25.1875C25.636 5.6875 26 6.24222 26 6.92559C26 7.60895 25.636 8.16367 25.1875 8.16367H0.812735C0.364222 8.16367 0.000263214 7.60895 0.000263214 6.92559C0.000263214 6.24222 0.364222 5.6875 0.812735 5.6875Z" fill="#1A1A18"/>
<path d="M0.812664 11.375H17.0625C17.511 11.375 17.875 11.9297 17.875 12.6131C17.875 13.2966 17.511 13.8512 17.0625 13.8512H0.812664C0.364149 13.8512 0.000190735 13.2965 0.000190735 12.6131C0.000123978 11.9296 0.364149 11.375 0.812664 11.375Z" fill="#1A1A18"/>
</svg>
