<svg width="59" height="52" viewBox="0 0 59 52" fill="none" xmlns="http://www.w3.org/2000/svg">
<path d="M25.994 12.11L19.7075 5.82342C18.5442 4.6601 16.6512 4.6601 15.4879 5.82342L13.0002 8.31112C11.8369 9.47444 11.8369 11.3674 13.0002 12.5307L19.2867 18.8172C19.8684 19.399 20.6324 19.6897 21.3965 19.6897C22.1604 19.6897 22.9247 19.3988 23.5063 18.8172L25.994 16.3296C27.1573 15.1663 27.1573 13.2733 25.994 12.11ZM24.8127 15.1483L22.325 17.6359C22.0769 17.8839 21.7472 18.0205 21.3965 18.0205C21.0457 18.0205 20.716 17.8839 20.468 17.6359L14.1815 11.3494C13.6695 10.8375 13.6695 10.0044 14.1815 9.49243L16.6692 7.00485C16.9252 6.74887 17.2614 6.62082 17.5977 6.62082C17.934 6.62082 18.2702 6.74887 18.5262 7.00473L24.8127 13.2913C25.0606 13.5394 25.1973 13.8691 25.1973 14.2198C25.1973 14.5705 25.0606 14.9002 24.8127 15.1483Z" fill="#6B1C00"/>
<path d="M18.3759 19.7282L12.0893 13.4416C10.9259 12.2783 9.03309 12.2783 7.86977 13.4416L5.38207 15.9293C4.21875 17.0926 4.21875 18.9856 5.38207 20.1489L11.6686 26.4355C12.2502 27.0172 13.0143 27.308 13.7783 27.308C14.5423 27.308 15.3065 27.0172 15.8882 26.4355L18.3759 23.9478C19.5392 22.7845 19.5392 20.8915 18.3759 19.7282ZM17.1945 22.7665L14.7068 25.2541C14.1949 25.766 13.3618 25.7659 12.8499 25.2541L6.56339 18.9675C6.31543 18.7194 6.17879 18.3897 6.17879 18.0391C6.17879 17.6884 6.31532 17.3586 6.56339 17.1106L9.05109 14.6229C9.30707 14.3669 9.64329 14.239 9.97952 14.239C10.3157 14.239 10.652 14.3669 10.9079 14.6229L17.1945 20.9095C17.7065 21.4215 17.7065 22.2545 17.1945 22.7665Z" fill="#6B1C00"/>
<path d="M56.979 16.046L49.0675 8.13459C47.879 6.94605 46.2349 6.32587 44.5579 6.43214C44.1688 6.4569 43.787 6.52178 43.4164 6.62106C42.061 5.58705 40.4221 4.64211 38.6277 3.87279C35.9598 2.72884 33.2466 2.09881 30.9875 2.09881C30.9871 2.09881 30.9868 2.09881 30.9866 2.09881C30.6745 2.09881 30.3756 2.11188 30.0887 2.13607C29.4241 1.37019 28.4778 0.855475 27.4097 0.754138L19.778 0.0297575C17.8205 -0.156066 15.9009 0.534726 14.5108 1.92491L6.52547 9.91029C6.19922 10.2364 6.19922 10.7654 6.52547 11.0916C6.85161 11.4177 7.38053 11.4177 7.70679 11.0916L15.6922 3.10622C16.7288 2.06958 18.1605 1.55418 19.6201 1.69289L27.2519 2.41727C28.3888 2.52525 29.2924 3.42881 29.4004 4.56576L29.8094 8.87536C29.8017 8.86848 29.7939 8.8616 29.7861 8.85461C29.7168 8.79259 29.6482 8.73046 29.5813 8.66798C29.5223 8.61319 29.4643 8.55816 29.4075 8.50302C29.3808 8.477 29.3542 8.45109 29.3278 8.42496C29.2476 8.34563 29.1687 8.26619 29.0927 8.1864C29.0262 8.11647 28.9626 8.04689 28.9003 7.97742C28.8854 7.9608 28.8706 7.94429 28.856 7.92778C28.797 7.86107 28.7396 7.79458 28.6846 7.72843C28.6722 7.71364 28.6606 7.69897 28.6485 7.68418C28.6051 7.63134 28.5632 7.57883 28.5225 7.52645C28.5055 7.50466 28.4883 7.48277 28.4718 7.4611C28.4276 7.40287 28.3848 7.34486 28.3438 7.28732C28.3235 7.25877 28.3041 7.23057 28.2846 7.20226C28.2696 7.18036 28.2552 7.15869 28.2406 7.13703C28.7176 6.14349 28.5477 4.91471 27.7253 4.09232C26.6844 3.05143 24.9907 3.05131 23.9496 4.09232C22.9086 5.13332 22.9086 6.82706 23.9496 7.86806C24.47 8.3885 25.1538 8.64872 25.8374 8.64872C26.2555 8.64872 26.6732 8.55025 27.0539 8.3556C27.2931 8.68082 27.5691 9.00891 27.8822 9.33803C28.4889 9.97563 29.2136 10.5967 30.0286 11.1857L30.1246 12.1975C30.2632 13.6569 29.7481 15.0887 28.7113 16.1255L15.2233 29.6135C14.8781 29.9586 14.4193 30.1487 13.9311 30.1487C13.443 30.1487 12.9841 29.9586 12.639 29.6135L2.20406 19.1785C1.8589 18.8334 1.66883 18.3745 1.66883 17.8864C1.66883 17.3983 1.8589 16.9394 2.20406 16.5942L3.84805 14.9502C4.1743 14.6241 4.1743 14.0952 3.84805 13.7689C3.52191 13.4428 2.99298 13.4428 2.66673 13.7689L1.02286 15.4127C-0.340954 16.7765 -0.340954 18.9957 1.02286 20.3596L11.4578 30.7945C12.1184 31.4552 12.9969 31.8191 13.9313 31.8191C14.8656 31.8191 15.7441 31.4553 16.4047 30.7945L29.8927 17.3066C31.2129 15.9863 31.9008 14.1884 31.8077 12.3346C32.6314 12.8114 33.5121 13.2544 34.4351 13.6501C34.9542 13.8728 35.4749 14.0752 35.9937 14.2581L31.2987 20.3267C29.6934 22.4016 29.6875 25.2676 31.1776 27.3407L27.3223 31.196C26.8885 31.6299 26.7072 32.2701 26.8493 32.867C26.858 32.9037 26.8469 32.9431 26.8202 32.97L24.0381 35.7521C23.9271 35.863 23.8338 35.9898 23.7605 36.1291L22.1942 39.1127L19.383 40.5659C19.0855 40.7198 18.8415 40.9706 18.696 41.2723L17.5935 43.5584L14.2465 45.6549C13.8951 45.8749 13.6636 46.2369 13.6111 46.648L13.1249 50.4468C13.0703 50.8733 13.2134 51.2922 13.5174 51.5961C13.7789 51.8576 14.1254 52 14.4886 52C14.5476 52 14.6071 51.9962 14.6669 51.9887L18.4658 51.5025C18.8766 51.4499 19.2385 51.2184 19.4587 50.8672L21.5553 47.5202L23.8412 46.4176C24.143 46.2721 24.3939 46.028 24.5477 45.7305L26.0009 42.9195L28.9847 41.353C29.124 41.2799 29.2509 41.1865 29.3616 41.0756L32.1436 38.2936C32.1708 38.2665 32.2094 38.2555 32.2465 38.2645C32.8437 38.4064 33.4839 38.2252 33.9176 37.7914L37.7725 33.9365C38.7874 34.666 39.9917 35.0376 41.201 35.0375C42.4619 35.0375 43.7276 34.6345 44.7867 33.8151L49.2548 30.3582C49.6197 30.0759 49.6867 29.5513 49.4044 29.1864C49.1222 28.8217 48.5975 28.7545 48.2326 29.0368L43.7645 32.4937C42.1243 33.7626 39.7932 33.6345 38.3003 32.2083C38.299 32.2072 38.298 32.2058 38.2969 32.2047L38.2633 32.1729C38.2524 32.1627 38.2414 32.1526 38.2308 32.142L32.9718 26.883C32.9614 26.8725 32.9514 26.8617 32.9413 26.8511L32.9084 26.8164C32.9075 26.8154 32.9066 26.8146 32.9057 26.8137C31.4794 25.3209 31.3511 22.9895 32.6201 21.3492L37.6972 14.7866C39.2463 15.2028 40.7403 15.4244 42.0754 15.4244C42.0756 15.4244 42.076 15.4244 42.0763 15.4244C42.4733 15.4244 42.8502 15.4044 43.2062 15.3654L49.8741 22.0333C50.3574 22.5165 50.9921 22.7581 51.6269 22.7581C52.2616 22.7581 52.8964 22.5165 53.3797 22.0333C54.3461 21.0668 54.3461 19.4944 53.3797 18.5279L46.5859 11.7341C46.1177 11.266 45.4953 11.0081 44.8331 11.0081C44.171 11.0081 43.5485 11.266 43.0804 11.7341C42.6122 12.2023 42.3543 12.8248 42.3543 13.4869C42.3543 13.5751 42.3595 13.6624 42.3686 13.749C42.2726 13.7518 42.1754 13.7538 42.076 13.7538C42.0757 13.7538 42.0756 13.7538 42.0752 13.7538C41.076 13.7538 39.97 13.613 38.8119 13.3457L41.6213 9.71426C42.3562 8.76428 43.4651 8.17574 44.6637 8.09962C45.8626 8.02305 47.0369 8.4668 47.8861 9.31602L55.7975 17.2275C56.6468 18.0768 57.0902 19.2512 57.0139 20.4499C56.9378 21.6485 56.3493 22.7575 55.3993 23.4923L52.7 25.5806C52.3351 25.8629 52.2682 26.3875 52.5504 26.7524C52.8326 27.1172 53.3572 27.1841 53.7222 26.902L56.4215 24.8137C57.7509 23.7852 58.5745 22.2332 58.6812 20.5559C58.788 18.8782 58.1675 17.2346 56.979 16.046ZM25.8375 6.97918C25.5706 6.97918 25.3197 6.8752 25.1309 6.68651C24.9422 6.49771 24.8382 6.24677 24.8382 5.9799C24.8382 5.71303 24.9422 5.46209 25.1309 5.2734C25.3197 5.08471 25.5706 4.98074 25.8375 4.98074C25.879 4.98074 25.9199 4.98418 25.9605 4.98911C25.8665 5.58613 25.9572 6.23003 26.225 6.90134C26.1039 6.95224 25.9728 6.97918 25.8375 6.97918ZM32.3036 28.5773L36.5362 32.8098L32.7361 36.6099C32.7094 36.6366 32.6698 36.6477 32.6332 36.639C32.0364 36.4971 31.396 36.6782 30.9622 37.1121L28.1922 39.882L25.1924 41.457C24.9085 41.6059 24.6806 41.8353 24.5331 42.1204L23.081 44.9295L20.7997 46.0298C20.5352 46.1574 20.3129 46.3564 20.1569 46.6055L18.1162 49.8632L14.83 50.2837L15.2506 46.9975L18.5081 44.957C18.7571 44.8011 18.9562 44.5789 19.0839 44.3142L20.1841 42.0328L22.9933 40.5806C23.278 40.4334 23.5074 40.2055 23.6566 39.9216L25.2317 36.9213L28.0014 34.1516C28.4352 33.7179 28.6166 33.0775 28.4746 32.4806C28.4656 32.4432 28.4766 32.4047 28.5037 32.3777L32.3036 28.5773ZM46.442 13.9528L52.1982 19.709C52.5134 20.0241 52.5134 20.5367 52.1982 20.8518C52.0455 21.0045 51.8426 21.0885 51.6268 21.0885C51.4109 21.0885 51.208 21.0045 51.0553 20.8518L45.1001 14.8966C45.6536 14.6584 46.1051 14.3423 46.442 13.9528ZM44.2617 12.9153C44.4144 12.7626 44.6173 12.6786 44.8331 12.6786C44.9761 12.6786 45.113 12.7162 45.2338 12.7855C44.9986 13.0981 44.5845 13.3446 44.0261 13.5104C44.0259 13.5025 44.025 13.4947 44.025 13.4867C44.025 13.2708 44.109 13.0679 44.2617 12.9153ZM40.3 8.69171L37.0747 12.8607C36.419 12.6473 35.7559 12.3988 35.0934 12.1147C33.8291 11.5726 32.6537 10.9412 31.6184 10.2557L31.0634 4.40768C31.0426 4.18941 31.0038 3.97653 30.95 3.76962C30.9623 3.76962 30.9742 3.76916 30.9866 3.76916C30.9869 3.76916 30.987 3.76916 30.9874 3.76916C33.0251 3.76916 35.5048 4.35116 37.9692 5.40799C39.3241 5.98896 40.5775 6.67241 41.6653 7.41513C41.1501 7.76133 40.6878 8.19041 40.3 8.69171Z" fill="#6B1C00"/>
</svg>
