<svg width="49" height="49" viewBox="0 0 49 49" fill="none" xmlns="http://www.w3.org/2000/svg">
<path d="M7.11289 6.32258H41.8871C42.0967 6.32258 42.2977 6.23931 42.4459 6.0911C42.5941 5.94289 42.6774 5.74186 42.6774 5.53226V3.95161C42.6774 3.43268 42.5752 2.91883 42.3766 2.4394C42.178 1.95996 41.887 1.52434 41.52 1.1574C41.1531 0.790459 40.7174 0.499386 40.238 0.300799C39.7586 0.102212 39.2447 0 38.7258 0H10.2742C9.22615 0 8.22104 0.416329 7.47997 1.1574C6.7389 1.89847 6.32257 2.90358 6.32257 3.95161V5.53226C6.32257 5.74186 6.40584 5.94289 6.55405 6.0911C6.70227 6.23931 6.90329 6.32258 7.11289 6.32258ZM7.90322 3.95161C7.90322 3.32279 8.15301 2.71973 8.59766 2.27509C9.0423 1.83044 9.64536 1.58065 10.2742 1.58065H38.7258C39.3546 1.58065 39.9577 1.83044 40.4023 2.27509C40.847 2.71973 41.0968 3.32279 41.0968 3.95161V4.74194H7.90322V3.95161Z" fill="#E7440B"/>
<path d="M42.4482 33.1936L34.6556 35.5645H14.3443L6.55175 33.1936C6.43281 33.1579 6.30715 33.1508 6.18494 33.1727C6.06274 33.1947 5.94743 33.2452 5.84836 33.32C5.74581 33.3968 5.66346 33.4973 5.60839 33.6129C5.55332 33.7286 5.52718 33.8559 5.53223 33.9839V40.3065C5.53223 40.9353 5.78203 41.5383 6.22667 41.983C6.67131 42.4276 7.27438 42.6774 7.9032 42.6774H41.0967C41.7256 42.6774 42.3286 42.4276 42.7733 41.983C43.2179 41.5383 43.4677 40.9353 43.4677 40.3065V33.9839C43.4677 33.8612 43.4391 33.7402 43.3843 33.6304C43.3294 33.5207 43.2497 33.4252 43.1516 33.3516C43.0553 33.2714 42.9413 33.2152 42.819 33.1877C42.6967 33.1602 42.5696 33.1622 42.4482 33.1936ZM41.8871 40.3065C41.8871 40.5161 41.8038 40.7171 41.6556 40.8653C41.5074 41.0135 41.3064 41.0968 41.0967 41.0968H7.9032C7.69359 41.0968 7.49257 41.0135 7.34436 40.8653C7.19614 40.7171 7.11288 40.5161 7.11288 40.3065V35.0429L13.9966 37.1452C14.0726 37.1563 14.1498 37.1563 14.2258 37.1452H34.7742C34.8502 37.1563 34.9274 37.1563 35.0034 37.1452L41.8871 35.0429V40.3065Z" fill="#E7440B"/>
<path d="M40.3064 11.0646H37.2084C37.0624 11.065 36.9194 11.1058 36.7953 11.1826C36.6711 11.2593 36.5706 11.3689 36.505 11.4992L35.928 12.6452H13.0956L12.408 11.4597C12.3384 11.3391 12.2381 11.239 12.1174 11.1696C11.9967 11.1003 11.8597 11.064 11.7205 11.0646H8.69352C8.48391 11.0646 8.28289 11.1478 8.13468 11.296C7.98646 11.4442 7.9032 11.6453 7.9032 11.8549V21.3387C7.9032 23.52 10.0292 25.2904 12.6451 25.2904H36.3548C38.9708 25.2904 41.0967 23.52 41.0967 21.3387V11.8549C41.0967 11.6453 41.0135 11.4442 40.8653 11.296C40.7171 11.1478 40.516 11.0646 40.3064 11.0646ZM39.5161 21.3387C39.5161 22.6428 38.1014 23.7097 36.3548 23.7097H12.6451C10.8985 23.7097 9.48384 22.6428 9.48384 21.3387V12.6452H11.27L11.9655 13.8307C12.0344 13.9501 12.1334 14.0494 12.2527 14.1188C12.3719 14.1881 12.5072 14.225 12.6451 14.2258H36.418C36.5653 14.2269 36.71 14.1867 36.8356 14.1099C36.9613 14.0331 37.063 13.9227 37.1293 13.7912L37.6984 12.6452H39.5161V21.3387Z" fill="#E7440B"/>
<path d="M39.5161 47.4194H36.3548V44.2581H34.7742V48.2097C34.7742 48.4193 34.8574 48.6203 35.0056 48.7685C35.1539 48.9168 35.3549 49 35.5645 49H40.3064C40.516 49 40.7171 48.9168 40.8653 48.7685C41.0135 48.6203 41.0968 48.4193 41.0968 48.2097V44.2581H39.5161V47.4194Z" fill="#E7440B"/>
<path d="M12.6451 47.4194H9.48384V44.2581H7.9032V48.2097C7.9032 48.4193 7.98646 48.6203 8.13468 48.7685C8.28289 48.9168 8.48391 49 8.69352 49H13.4355C13.6451 49 13.8461 48.9168 13.9943 48.7685C14.1425 48.6203 14.2258 48.4193 14.2258 48.2097V44.2581H12.6451V47.4194Z" fill="#E7440B"/>
<path d="M14.5341 27.7245L9.0018 25.3535C8.88168 25.3026 8.75084 25.2823 8.62095 25.2943C8.49105 25.3063 8.36615 25.3502 8.25737 25.4222C8.14859 25.4942 8.05933 25.592 7.99754 25.7069C7.93575 25.8218 7.90336 25.9502 7.90325 26.0806V30.0322C7.89669 30.2096 7.95004 30.384 8.0547 30.5274C8.15936 30.6708 8.30924 30.7747 8.48019 30.8225L14.0124 32.4032C14.0831 32.4147 14.1552 32.4147 14.2258 32.4032C14.4354 32.4032 14.6365 32.3199 14.7847 32.1717C14.9329 32.0235 15.0162 31.8225 15.0162 31.6129V28.4516C15.016 28.2964 14.9702 28.1448 14.8845 28.0155C14.7988 27.8862 14.6769 27.785 14.5341 27.7245ZM13.4355 30.5617L9.4839 29.4395V27.2819L13.4355 28.9732V30.5617Z" fill="#E7440B"/>
<path d="M40.7411 25.4247C40.6328 25.3525 40.5082 25.3083 40.3786 25.2959C40.249 25.2835 40.1184 25.3033 39.9982 25.3535L34.466 27.7245C34.3231 27.785 34.2012 27.8862 34.1155 28.0155C34.0298 28.1448 33.984 28.2965 33.9839 28.4516V31.6129C33.9839 31.8225 34.0672 32.0235 34.2154 32.1717C34.3636 32.32 34.5646 32.4032 34.7742 32.4032C34.8449 32.4147 34.9169 32.4147 34.9876 32.4032L40.5199 30.8226C40.6908 30.7748 40.8407 30.6708 40.9453 30.5274C41.05 30.3841 41.1033 30.2096 41.0968 30.0323V26.0806C41.0961 25.9505 41.0633 25.8225 41.0013 25.708C40.9392 25.5936 40.8499 25.4963 40.7411 25.4247ZM39.5161 29.4395L35.5645 30.5618V28.9811L39.5161 27.2898V29.4395Z" fill="#E7440B"/>
<path d="M17.3871 27.6613H31.6129V29.242H17.3871V27.6613Z" fill="#E7440B"/>
<path d="M18.1774 30.0322H30.8226V31.6129H18.1774V30.0322Z" fill="#E7440B"/>
<path d="M20.5484 37.9355H28.4516V39.5161H20.5484V37.9355Z" fill="#E7440B"/>
<path d="M9.87901 36.3549C9.48823 36.3549 9.10623 36.4707 8.78131 36.6878C8.45639 36.9049 8.20314 37.2135 8.0536 37.5746C7.90405 37.9356 7.86493 38.3329 7.94116 38.7161C8.0174 39.0994 8.20558 39.4515 8.4819 39.7278C8.75822 40.0041 9.11028 40.1923 9.49354 40.2685C9.87681 40.3447 10.2741 40.3056 10.6351 40.1561C10.9961 40.0065 11.3047 39.7533 11.5218 39.4284C11.7389 39.1034 11.8548 38.7214 11.8548 38.3307C11.8548 37.8066 11.6466 37.3041 11.2761 36.9336C10.9056 36.563 10.403 36.3549 9.87901 36.3549ZM9.87901 38.7258C9.80085 38.7258 9.72445 38.7026 9.65947 38.6592C9.59448 38.6158 9.54383 38.5541 9.51392 38.4819C9.48402 38.4097 9.47619 38.3302 9.49144 38.2536C9.50668 38.1769 9.54432 38.1065 9.59958 38.0512C9.65485 37.996 9.72526 37.9583 9.80191 37.9431C9.87857 37.9279 9.95802 37.9357 10.0302 37.9656C10.1024 37.9955 10.1641 38.0461 10.2076 38.1111C10.251 38.1761 10.2742 38.2525 10.2742 38.3307C10.2742 38.4355 10.2325 38.536 10.1584 38.6101C10.0843 38.6842 9.98381 38.7258 9.87901 38.7258Z" fill="#E7440B"/>
<path d="M39.1209 40.3065C39.5117 40.3065 39.8937 40.1906 40.2186 39.9735C40.5436 39.7564 40.7968 39.4478 40.9464 39.0868C41.0959 38.7257 41.135 38.3285 41.0588 37.9452C40.9826 37.5619 40.7944 37.2099 40.5181 36.9336C40.2417 36.6572 39.8897 36.4691 39.5064 36.3928C39.1231 36.3166 38.7259 36.3557 38.3648 36.5053C38.0038 36.6548 37.6952 36.908 37.4781 37.233C37.261 37.5579 37.1451 37.9399 37.1451 38.3307C37.1451 38.8547 37.3533 39.3572 37.7238 39.7278C38.0944 40.0983 38.5969 40.3065 39.1209 40.3065ZM39.1209 37.9355C39.1991 37.9355 39.2755 37.9587 39.3405 38.0021C39.4055 38.0455 39.4561 38.1072 39.486 38.1794C39.5159 38.2516 39.5238 38.3311 39.5085 38.4078C39.4933 38.4844 39.4556 38.5548 39.4004 38.6101C39.3451 38.6654 39.2747 38.703 39.198 38.7182C39.1214 38.7335 39.0419 38.7257 38.9697 38.6957C38.8975 38.6658 38.8358 38.6152 38.7924 38.5502C38.749 38.4852 38.7258 38.4088 38.7258 38.3307C38.7258 38.2259 38.7674 38.1254 38.8415 38.0512C38.9156 37.9771 39.0161 37.9355 39.1209 37.9355Z" fill="#E7440B"/>
<path d="M47.4194 11.9971V11.8549C47.4194 11.226 47.1696 10.623 46.7249 10.1783C46.2803 9.7337 45.6772 9.4839 45.0484 9.4839H43.4677C43.3618 9.4841 43.257 9.5056 43.1595 9.54712C42.8601 8.8272 42.3544 8.21194 41.7061 7.77879C41.0578 7.34565 40.2958 7.11397 39.5161 7.11293H9.48387C8.71532 7.11333 7.96357 7.33783 7.32067 7.75894C6.67776 8.18006 6.17161 8.77951 5.86419 9.4839H3.95161C3.32279 9.4839 2.71973 9.7337 2.27509 10.1783C1.83044 10.623 1.58065 11.226 1.58065 11.8549V11.9971C1.11945 12.1602 0.719983 12.4619 0.437 12.8609C0.154017 13.2599 0.00137478 13.7367 0 14.2258V18.9678C0.00137478 19.4569 0.154017 19.9337 0.437 20.3327C0.719983 20.7317 1.11945 21.0334 1.58065 21.1965V22.9194C1.58065 23.5482 1.83044 24.1513 2.27509 24.5959C2.71973 25.0406 3.32279 25.2903 3.95161 25.2903V23.7097C3.74201 23.7097 3.54098 23.6264 3.39277 23.4782C3.24456 23.33 3.16129 23.129 3.16129 22.9194V21.3387H3.95161C4.16122 21.3387 4.36224 21.2555 4.51046 21.1073C4.65867 20.959 4.74194 20.758 4.74194 20.5484V12.6452C4.74194 12.4356 4.65867 12.2346 4.51046 12.0863C4.36224 11.9381 4.16122 11.8549 3.95161 11.8549H3.16129C3.16129 11.6453 3.24456 11.4442 3.39277 11.296C3.54098 11.1478 3.74201 11.0645 3.95161 11.0645H5.53226V31.6129C5.52477 31.7883 5.57585 31.9611 5.67744 32.1042C5.77904 32.2473 5.92538 32.3525 6.09339 32.4033L13.9966 34.7742C14.0726 34.7854 14.1498 34.7854 14.2258 34.7742H34.7742C34.8502 34.7854 34.9274 34.7854 35.0034 34.7742L42.9066 32.4033C43.0746 32.3525 43.221 32.2473 43.3226 32.1042C43.4242 31.9611 43.4752 31.7883 43.4677 31.6129V11.0645H45.0484C45.258 11.0645 45.459 11.1478 45.6072 11.296C45.7554 11.4442 45.8387 11.6453 45.8387 11.8549H45.0484C44.8388 11.8549 44.6378 11.9381 44.4895 12.0863C44.3413 12.2346 44.2581 12.4356 44.2581 12.6452V20.5484C44.2581 20.758 44.3413 20.959 44.4895 21.1073C44.6378 21.2555 44.8388 21.3387 45.0484 21.3387H45.8387V22.9194C45.8387 23.129 45.7554 23.33 45.6072 23.4782C45.459 23.6264 45.258 23.7097 45.0484 23.7097V25.2903C45.6772 25.2903 46.2803 25.0406 46.7249 24.5959C47.1696 24.1513 47.4194 23.5482 47.4194 22.9194V21.1965C47.8805 21.0334 48.28 20.7317 48.563 20.3327C48.846 19.9337 48.9986 19.4569 49 18.9678V14.2258C48.9986 13.7367 48.846 13.2599 48.563 12.8609C48.28 12.4619 47.8805 12.1602 47.4194 11.9971ZM3.16129 19.7581H2.37097C2.16136 19.7581 1.96034 19.6748 1.81213 19.5266C1.66391 19.3784 1.58065 19.1774 1.58065 18.9678V14.2258C1.58065 14.0162 1.66391 13.8152 1.81213 13.667C1.96034 13.5188 2.16136 13.4355 2.37097 13.4355H3.16129V19.7581ZM41.8871 31.0281L34.6556 33.1936H14.3444L7.1129 31.0281V11.0645C7.1129 10.4357 7.3627 9.83266 7.80734 9.38802C8.25199 8.94337 8.85505 8.69358 9.48387 8.69358H39.5161C40.145 8.69358 40.748 8.94337 41.1927 9.38802C41.6373 9.83266 41.8871 10.4357 41.8871 11.0645V31.0281ZM47.4194 18.9678C47.4194 19.1774 47.3361 19.3784 47.1879 19.5266C47.0397 19.6748 46.8386 19.7581 46.629 19.7581H45.8387V13.4355H46.629C46.8386 13.4355 47.0397 13.5188 47.1879 13.667C47.3361 13.8152 47.4194 14.0162 47.4194 14.2258V18.9678Z" fill="#E7440B"/>
</svg>
