<svg width="22" height="20" viewBox="0 0 22 20" fill="none" xmlns="http://www.w3.org/2000/svg">
<path d="M6.52417 2.29372C7.84774 2.321 9.13698 2.92615 10.0611 4.53245C10.4045 5.12823 11.2616 5.12823 11.6064 4.53245C12.5308 2.92643 13.82 2.32127 15.1433 2.29372C16.4669 2.26478 17.8218 2.89088 18.6575 3.89836C20.2701 5.84472 20.4761 9.24608 18.1152 11.6289L10.8336 17.9224L3.55093 11.6289C1.19141 9.24635 1.39607 5.84472 3.01002 3.89836C3.8457 2.89088 5.20059 2.26478 6.52417 2.29372ZM6.56263 0.501409C4.67122 0.4609 2.83558 1.308 1.63645 2.75309C-0.581326 5.4286 -0.714562 9.87769 2.29027 12.9018C2.3062 12.9181 2.32323 12.9335 2.34054 12.9492L10.2515 19.7836C10.5864 20.0721 11.0814 20.0721 11.416 19.7836L19.3283 12.9492C19.3457 12.9335 19.3613 12.9181 19.3772 12.9018C22.3821 9.87741 22.2472 5.4286 20.0297 2.75309C18.8322 1.30773 16.9949 0.460624 15.1046 0.501409C13.5365 0.533926 12.0242 1.40803 10.8336 2.83907C9.64328 1.40803 8.13098 0.533926 6.56263 0.501409Z" fill="#1A1A18"/>
</svg>
