<svg width="1920" height="220" viewBox="0 0 1920 220" fill="none" xmlns="http://www.w3.org/2000/svg">
<path d="M1920 218.033C1903.03 218.033 1888.1 218.033 1869.78 218.033C1869.78 190.709 1869.78 163.385 1869.78 135.379C1809.38 135.379 1751.7 135.379 1691.3 135.379C1691.3 162.702 1691.3 190.026 1691.3 218.033C1672.97 218.033 1657.36 218.033 1637 218.033C1639.04 169.533 1638.36 121.717 1644.47 74.5837C1649.22 37.0138 1676.37 9.69021 1714.37 6.27476C1782.23 0.810043 1850.78 1.49313 1920 0.126953C1920 74.5837 1920 145.625 1920 218.033ZM1696.05 87.5625C1703.51 87.5625 1708.94 87.5625 1715.05 87.5625C1756.45 87.5625 1798.52 87.5625 1839.92 87.5625C1871.14 87.5625 1871.14 87.5625 1867.74 56.1403C1867.74 55.4572 1866.39 54.0911 1865.71 52.7249C1827.7 52.7249 1788.34 52.0418 1749.66 52.7249C1738.8 52.7249 1727.26 56.1403 1716.41 59.5558C1705.55 63.6543 1696.73 71.1683 1696.05 87.5625Z" fill="white" fill-opacity="0.05"/>
<path d="M1.46588 218.031C1.46588 171.581 -2.606 125.131 2.82317 80.0474C7.5737 34.2803 42.1847 4.90748 88.3327 3.5413C151.447 1.49203 213.882 2.85821 278.354 2.85821C278.354 73.8995 278.354 144.941 278.354 218.031C262.745 218.031 247.136 218.031 228.813 218.031C228.813 191.391 228.813 164.75 228.813 136.061C169.092 136.061 110.728 136.061 50.3284 136.061C50.3284 163.384 50.3284 190.708 50.3284 218.031C32.6836 218.031 17.0748 218.031 1.46588 218.031ZM227.455 54.773C181.307 54.773 137.195 54.773 93.0832 54.773C85.6181 54.773 77.4743 57.5054 72.0451 61.6039C64.58 67.0686 59.8295 75.9488 51.6857 85.5121C114.121 85.5121 171.128 85.5121 228.134 85.5121C227.455 75.2657 227.455 65.0194 227.455 54.773Z" fill="white" fill-opacity="0.05"/>
<path d="M1058.12 218.716C1039.12 218.716 1024.19 218.716 1005.86 218.716C1005.86 203.688 1005.86 189.343 1005.86 174.315C1006.54 142.893 1005.18 110.787 1009.26 79.3653C1015.36 37.6969 1041.83 8.32399 1083.23 5.59163C1149.74 1.49309 1216.92 4.22545 1285.47 4.22545C1285.47 74.5837 1285.47 145.625 1285.47 218.033C1268.5 218.033 1252.89 218.033 1234.57 218.033C1234.57 190.709 1234.57 163.385 1234.57 135.379C1174.85 135.379 1117.16 135.379 1057.44 135.379C1058.12 162.702 1058.12 190.026 1058.12 218.716ZM1062.19 86.8793C1119.88 86.8793 1176.88 86.8793 1233.89 86.8793C1233.89 75.2668 1233.89 65.0205 1233.89 52.7248C1197.24 52.7248 1161.95 52.0417 1125.98 52.7248C1112.41 52.7248 1098.84 55.4572 1085.94 58.8726C1073.73 61.605 1064.91 70.4852 1062.19 86.8793Z" fill="white" fill-opacity="0.05"/>
<path d="M1548.78 52.0408C1475.49 52.0408 1402.87 52.0408 1329.58 52.0408C1329.58 34.2805 1329.58 19.2525 1329.58 2.17528C1335.69 1.49219 1341.12 1.49219 1346.54 1.49219C1425.95 1.49219 1505.35 1.49219 1584.07 1.49219C1596.97 1.49219 1602.39 4.90764 1601.72 18.5694C1600.36 56.8225 1603.07 95.0755 1599 133.329C1592.89 185.926 1558.28 216.665 1506.03 218.715C1449.02 220.764 1392.01 219.398 1335.01 219.398C1333.65 219.398 1332.29 218.715 1329.58 218.032C1329.58 174.997 1329.58 131.962 1329.58 88.2446C1345.87 88.2446 1362.15 88.2446 1379.8 88.2446C1379.8 114.885 1379.8 140.843 1379.8 168.849C1396.09 168.849 1410.34 168.849 1425.27 168.849C1450.38 168.849 1475.49 169.532 1499.92 168.166C1527.74 167.483 1544.71 152.455 1548.1 124.448C1550.14 106.688 1549.46 88.2446 1549.46 70.4843C1550.14 65.0196 1549.46 59.5548 1548.78 52.0408Z" fill="white" fill-opacity="0.05"/>
<path d="M374.041 52.7218C374.041 108.052 374.041 162.016 374.041 217.346C357.075 217.346 340.787 217.346 323.821 217.346C323.821 146.988 323.821 75.2637 323.821 2.8562C418.153 2.8562 512.485 2.8562 611.568 2.8562C608.853 28.8136 609.532 55.4541 603.424 80.0454C594.601 115.566 566.098 130.594 532.166 131.96C488.732 135.376 445.299 133.326 400.508 133.326C400.508 118.298 400.508 103.27 400.508 86.1932C418.153 86.1932 435.119 86.1932 452.764 86.1932C477.195 86.1932 501.627 86.8763 526.058 85.5101C545.739 84.827 555.919 73.2145 556.597 52.7218C496.198 52.7218 436.477 52.7218 374.041 52.7218Z" fill="white" fill-opacity="0.05"/>
<path d="M693.006 218.034C674.683 218.034 659.074 218.034 642.108 218.034C642.108 146.309 642.108 75.2679 642.108 2.86037C646.858 2.17729 650.93 1.4942 655.002 1.4942C722.188 1.4942 789.374 0.128015 856.56 2.17729C876.241 2.86038 897.958 7.642 915.603 15.8391C946.82 30.184 963.108 57.5076 964.465 91.6621C966.501 133.331 965.144 174.316 965.144 217.351C948.856 217.351 932.569 217.351 914.924 217.351C914.924 212.569 914.245 206.421 914.245 200.956C914.245 170.217 914.245 139.478 914.245 109.422C913.567 70.4863 895.243 52.0428 856.56 52.0428C806.34 52.0428 756.799 52.0428 706.579 52.0428C702.507 52.0428 698.436 52.7259 692.328 52.7259C693.006 108.056 693.006 162.703 693.006 218.034Z" fill="white" fill-opacity="0.05"/>
<path d="M824.664 218.034C808.377 218.034 792.089 218.034 775.123 218.034C775.123 172.267 775.123 127.183 775.123 80.7329C791.41 80.7329 807.019 80.7329 824.664 80.7329C824.664 125.817 824.664 170.901 824.664 218.034Z" fill="white" fill-opacity="0.05"/>
</svg>
