<svg width="21" height="21" viewBox="0 0 21 21" fill="none" xmlns="http://www.w3.org/2000/svg">
<g clip-path="url(#clip0_8443_3961)">
<path d="M19.3342 13.3306C18.6382 12.719 17.7942 12.1906 16.8254 11.7601C16.4112 11.5762 15.9266 11.7627 15.7426 12.1767C15.5587 12.5907 15.7452 13.0753 16.1592 13.2594C16.9761 13.6225 17.6801 14.061 18.2513 14.563C18.9555 15.1817 19.3594 16.0776 19.3594 17.0215V18.5391C19.3594 18.9914 18.9914 19.3594 18.5391 19.3594H2.46094C2.00864 19.3594 1.64062 18.9914 1.64062 18.5391V17.0215C1.64062 16.0776 2.04453 15.1817 2.74869 14.563C3.57749 13.8346 5.99229 12.1406 10.5 12.1406C13.8471 12.1406 16.5703 9.41741 16.5703 6.07031C16.5703 2.72321 13.8471 0 10.5 0C7.1529 0 4.42969 2.72321 4.42969 6.07031C4.42969 8.02705 5.36055 9.77021 6.80251 10.881C4.16405 11.461 2.52278 12.5774 1.66578 13.3306C0.607224 14.2606 0 15.6058 0 17.0215V18.5391C0 19.8961 1.1039 21 2.46094 21H18.5391C19.8961 21 21 19.8961 21 18.5391V17.0215C21 15.6058 20.3928 14.2606 19.3342 13.3306ZM6.07031 6.07031C6.07031 3.6278 8.05749 1.64062 10.5 1.64062C12.9425 1.64062 14.9297 3.6278 14.9297 6.07031C14.9297 8.51283 12.9425 10.5 10.5 10.5C8.05749 10.5 6.07031 8.51283 6.07031 6.07031Z" fill="#1A1A18"/>
</g>
<defs>
<clipPath id="clip0_8443_3961">
<rect width="21" height="21" fill="white"/>
</clipPath>
</defs>
</svg>
