<svg width="45" height="48" viewBox="0 0 45 48" fill="none" xmlns="http://www.w3.org/2000/svg">
<path d="M11.0392 42.1552C11.0392 41.6773 10.6516 41.2894 10.1734 41.2894C9.69522 41.2894 9.30759 41.6773 9.30759 42.1552V43.2375C9.30759 43.7159 9.69522 44.1033 10.1734 44.1033C10.6516 44.1033 11.0392 43.7159 11.0392 43.2375V42.1552Z" fill="#E7440B"/>
<path fill-rule="evenodd" clip-rule="evenodd" d="M8.22533 1.28655C8.22533 0.553998 7.59372 -0.0923315 6.79049 0.0108878C2.95974 0.503148 0 3.77493 0 7.73941V9.47106C0 12.7011 1.96499 15.4703 4.76204 16.652V42.5886C4.76204 45.5774 7.18479 48 10.1734 48C13.1621 48 15.5848 45.5774 15.5848 42.5886V16.652C18.3819 15.4703 20.3469 12.7011 20.3469 9.47106V7.73941C20.3469 3.77493 17.3871 0.503148 13.5564 0.0108878C12.7532 -0.0923315 12.1215 0.553994 12.1215 1.28655V8.17232H8.22533V1.28655ZM1.73165 7.73941C1.73165 4.83821 3.7708 2.41208 6.49369 1.81791V8.60524C6.49369 9.32249 7.07513 9.90397 7.79242 9.90397H12.5545C13.2718 9.90397 13.8532 9.32249 13.8532 8.60524V1.81791C16.5761 2.41208 18.6152 4.83821 18.6152 7.73941V9.47106C18.6152 12.0589 16.993 14.27 14.7069 15.1387C14.2178 15.3246 13.8532 15.7969 13.8532 16.3661V42.5886C13.8532 44.6207 12.2057 46.2683 10.1734 46.2683C8.14118 46.2683 6.49369 44.6207 6.49369 42.5886V16.3661C6.49369 15.7969 6.12909 15.3246 5.63994 15.1387C3.3539 14.27 1.73165 12.0589 1.73165 9.47106V7.73941Z" fill="#E7440B"/>
<path d="M31.8627 11.7699C31.6719 11.6734 31.4736 11.635 31.2901 11.635H20.9963C20.5181 11.635 20.1304 12.0227 20.1304 12.5009C20.1304 12.979 20.5181 13.3667 20.9963 13.3667H31.1779C32.109 13.8851 33.9797 15.5652 34.4252 18.6841C34.4644 18.9584 34.6282 19.1841 34.851 19.3124C33.8591 20.3981 32.6299 20.8469 31.9773 20.9427H17.3165C16.8383 20.9427 16.4507 21.3303 16.4507 21.8085C16.4507 22.2866 16.8383 22.6743 17.3165 22.6743H32.0894L32.1429 22.6676C33.4467 22.5046 36.0919 21.456 37.3838 18.5616H41.3431C42.0605 18.5616 42.6419 19.1431 42.6419 19.8604V19.9515C42.6419 20.5925 42.1743 21.1376 41.5406 21.2351L38.4435 21.7115C37.4871 21.8587 37.0218 22.9626 37.5843 23.75L38.6946 25.3048C39.0093 25.7453 39.1786 26.2731 39.1786 26.8145V31.9819C39.1786 33.4165 38.0156 34.5794 36.5811 34.5794H17.3165C16.8383 34.5794 16.4507 34.967 16.4507 35.4452C16.4507 35.9234 16.8383 36.311 17.3165 36.311H36.5811C37.1142 36.311 37.6247 36.2147 38.0963 36.0384V38.2591C38.0963 38.7373 37.7087 39.125 37.2305 39.125H31.6026C31.1244 39.125 30.7368 38.7373 30.7368 38.2591V38.0427C30.7368 37.5645 30.3492 37.1769 29.871 37.1769C29.3928 37.1769 29.0051 37.5645 29.0051 38.0427V38.2591C29.0051 39.6937 30.1681 40.8565 31.6026 40.8565H37.2305C38.6651 40.8565 39.8279 39.6937 39.8279 38.2591V35.0123C39.8279 34.9605 39.8232 34.9097 39.8145 34.8604C40.4959 34.0954 40.9102 33.087 40.9102 31.9819V26.8145C40.9102 25.9122 40.6284 25.0325 40.1037 24.2983L39.4024 23.3161L41.8038 22.9466C43.2822 22.7192 44.3735 21.4472 44.3735 19.9515V19.8604C44.3735 18.1867 43.0168 16.83 41.3431 16.83H37.1038C36.6087 16.83 36.1863 17.1062 35.9627 17.5004C35.1931 14.2338 33.0852 12.3883 31.8627 11.7699Z" fill="#E7440B"/>
<path d="M37.3767 25.061C37.0213 24.7411 36.4738 24.7699 36.154 25.1253L34.4638 27.0033H30.0874C29.6092 27.0033 29.2216 27.3909 29.2216 27.8691C29.2216 28.3473 29.6092 28.7349 30.0874 28.7349H34.6566C35.0248 28.7349 35.3757 28.5786 35.6219 28.305L37.4411 26.2837C37.761 25.9283 37.7322 25.3809 37.3767 25.061Z" fill="#E7440B"/>
<path d="M30.5203 31.7653C30.5203 31.2871 30.1327 30.8995 29.6545 30.8995H17.3165C16.8383 30.8995 16.4507 31.2871 16.4507 31.7653C16.4507 32.2435 16.8383 32.6312 17.3165 32.6312H29.6545C30.1327 32.6312 30.5203 32.2435 30.5203 31.7653Z" fill="#E7440B"/>
</svg>
