<svg width="48" height="48" viewBox="0 0 48 48" fill="none" xmlns="http://www.w3.org/2000/svg">
<path d="M32 45H8C6.67441 44.9984 5.40356 44.4711 4.46622 43.5337C3.52888 42.5964 3.00159 41.3256 3 40V7.99995C3.00159 6.67436 3.52888 5.40351 4.46622 4.46617C5.40356 3.52884 6.67441 3.00154 8 2.99995H23.46C24.1259 3.0004 24.785 3.13324 25.3991 3.39076C26.0132 3.64827 26.57 4.02531 27.037 4.49995L35.575 13.239C36.4908 14.1739 37.0026 15.4312 37 16.74V24.19C37 24.4552 36.8946 24.7095 36.7071 24.8971C36.5196 25.0846 36.2652 25.19 36 25.19C35.7348 25.19 35.4804 25.0846 35.2929 24.8971C35.1054 24.7095 35 24.4552 35 24.19V16.74C35.0004 15.9549 34.6931 15.201 34.144 14.64L25.605 5.89995C25.3252 5.61496 24.9914 5.38859 24.6231 5.23406C24.2548 5.07953 23.8594 4.99995 23.46 4.99995H8C7.20435 4.99995 6.44129 5.31603 5.87868 5.87863C5.31607 6.44124 5 7.20431 5 7.99995V40C5 40.7956 5.31607 41.5587 5.87868 42.1213C6.44129 42.6839 7.20435 43 8 43H32C32.3772 43.0014 32.7511 42.9284 33.1 42.785C33.3453 42.684 33.6207 42.6847 33.8655 42.7868C34.1103 42.8889 34.3046 43.0841 34.4055 43.3295C34.5064 43.5748 34.5057 43.8502 34.4036 44.095C34.3015 44.3398 34.1063 44.534 33.861 44.635C33.2706 44.8774 32.6383 45.0015 32 45Z" fill="white"/>
<path d="M35.59 16H29C27.6744 15.9984 26.4036 15.4711 25.4662 14.5337C24.5289 13.5964 24.0016 12.3255 24 11V4.30995C24 4.04474 24.1054 3.79038 24.2929 3.60284C24.4804 3.41531 24.7348 3.30995 25 3.30995C25.2652 3.30995 25.5196 3.41531 25.7071 3.60284C25.8946 3.79038 26 4.04474 26 4.30995V11C26 11.7956 26.3161 12.5587 26.8787 13.1213C27.4413 13.6839 28.2044 14 29 14H35.59C35.8552 14 36.1096 14.1053 36.2971 14.2928C36.4846 14.4804 36.59 14.7347 36.59 15C36.59 15.2652 36.4846 15.5195 36.2971 15.7071C36.1096 15.8946 35.8552 16 35.59 16Z" fill="white"/>
<path d="M34 44.854C33.6057 44.8544 33.22 44.7378 32.892 44.519L29.68 42.377C27.6237 41.0097 25.9376 39.1549 24.7721 36.9779C23.6065 34.8009 22.9978 32.3693 23 29.9V28.188C23.002 27.738 23.1549 27.3018 23.4343 26.9491C23.7137 26.5964 24.1034 26.3478 24.541 26.243C27.5109 25.422 30.3362 24.1473 32.917 22.464C33.2399 22.256 33.6159 22.1454 34 22.1454C34.3841 22.1454 34.7601 22.256 35.083 22.464C37.6637 24.1476 40.489 25.4223 43.459 26.243C43.8966 26.3478 44.2863 26.5964 44.5657 26.9491C44.8451 27.3018 44.998 27.738 45 28.188V29.9C45.0029 32.37 44.3944 34.8024 43.2289 36.9801C42.0633 39.1579 40.3769 41.0133 38.32 42.381L35.109 44.522C34.7803 44.7399 34.3944 44.8554 34 44.854ZM34 24.144C31.2352 25.9476 28.2071 27.3112 25.024 28.186L25 29.9C24.9976 32.0406 25.5249 34.1486 26.535 36.036C27.5451 37.9234 29.0065 39.5315 30.789 40.717L34 42.854L37.211 40.713C38.9929 39.5279 40.454 37.9204 41.4641 36.0338C42.4741 34.1472 43.0018 32.04 43 29.9V28.188C39.809 27.3137 36.773 25.9498 34 24.145V24.144Z" fill="white"/>
<path d="M33 36C32.7348 35.9999 32.4805 35.8945 32.293 35.707L30.293 33.707C30.1109 33.5183 30.0101 33.2657 30.0123 33.0035C30.0146 32.7414 30.1198 32.4905 30.3052 32.3051C30.4906 32.1197 30.7414 32.0146 31.0036 32.0123C31.2658 32.01 31.5184 32.1108 31.707 32.2929L33 33.5859L36.293 30.2929C36.4816 30.1108 36.7342 30.01 36.9964 30.0123C37.2586 30.0146 37.5094 30.1197 37.6948 30.3051C37.8802 30.4905 37.9854 30.7414 37.9877 31.0035C37.99 31.2657 37.8892 31.5183 37.707 31.707L33.707 35.707C33.5195 35.8945 33.2652 35.9999 33 36Z" fill="white"/>
<path d="M18 13H10C9.73478 13 9.48043 12.8946 9.29289 12.7071C9.10536 12.5195 9 12.2652 9 12C9 11.7347 9.10536 11.4804 9.29289 11.2928C9.48043 11.1053 9.73478 11 10 11H18C18.2652 11 18.5196 11.1053 18.7071 11.2928C18.8946 11.4804 19 11.7347 19 12C19 12.2652 18.8946 12.5195 18.7071 12.7071C18.5196 12.8946 18.2652 13 18 13Z" fill="white"/>
<path d="M24 19H10C9.73478 19 9.48043 18.8946 9.29289 18.7071C9.10536 18.5195 9 18.2652 9 18C9 17.7347 9.10536 17.4804 9.29289 17.2928C9.48043 17.1053 9.73478 17 10 17H24C24.2652 17 24.5196 17.1053 24.7071 17.2928C24.8946 17.4804 25 17.7347 25 18C25 18.2652 24.8946 18.5195 24.7071 18.7071C24.5196 18.8946 24.2652 19 24 19Z" fill="white"/>
<path d="M26 25H10C9.73478 25 9.48043 24.8946 9.29289 24.7071C9.10536 24.5195 9 24.2652 9 24C9 23.7347 9.10536 23.4804 9.29289 23.2928C9.48043 23.1053 9.73478 23 10 23H26C26.2652 23 26.5196 23.1053 26.7071 23.2928C26.8946 23.4804 27 23.7347 27 24C27 24.2652 26.8946 24.5195 26.7071 24.7071C26.5196 24.8946 26.2652 25 26 25Z" fill="white"/>
<path d="M20 31H10C9.73478 31 9.48043 30.8946 9.29289 30.7071C9.10536 30.5195 9 30.2652 9 30C9 29.7347 9.10536 29.4804 9.29289 29.2928C9.48043 29.1053 9.73478 29 10 29H20C20.2652 29 20.5196 29.1053 20.7071 29.2928C20.8946 29.4804 21 29.7347 21 30C21 30.2652 20.8946 30.5195 20.7071 30.7071C20.5196 30.8946 20.2652 31 20 31Z" fill="white"/>
<path d="M20 37H10C9.73478 37 9.48043 36.8946 9.29289 36.7071C9.10536 36.5195 9 36.2652 9 36C9 35.7347 9.10536 35.4804 9.29289 35.2928C9.48043 35.1053 9.73478 35 10 35H20C20.2652 35 20.5196 35.1053 20.7071 35.2928C20.8946 35.4804 21 35.7347 21 36C21 36.2652 20.8946 36.5195 20.7071 36.7071C20.5196 36.8946 20.2652 37 20 37Z" fill="white"/>
</svg>
