<svg width="19" height="19" viewBox="0 0 19 19" fill="none" xmlns="http://www.w3.org/2000/svg">
<path d="M16.625 11.4789C16.625 10.8231 17.1567 10.2914 17.8125 10.2914C18.4683 10.2914 19 10.8231 19 11.4789V17.8122C19 18.4681 18.4683 18.9997 17.8125 18.9997C17.1567 18.9997 16.625 18.4681 16.625 17.8122V11.4789Z" fill="#1A1A18"/>
<path d="M5.54135 5.9375C5.54135 5.28166 6.07301 4.75 6.72885 4.75C7.38469 4.75 7.91635 5.28166 7.91635 5.9375V17.8125C7.91635 18.4683 7.38469 19 6.72885 19C6.07301 19 5.54135 18.4683 5.54135 17.8125V5.9375Z" fill="#1A1A18"/>
<path d="M11.0836 1.1875C11.0836 0.531662 11.6153 0 12.2711 0C12.927 0 13.4586 0.531662 13.4586 1.1875V17.8125C13.4586 18.4683 12.927 19 12.2711 19C11.6153 19 11.0836 18.4683 11.0836 17.8125V1.1875Z" fill="#1A1A18"/>
<path d="M0 15.4375C0 14.7817 0.531662 14.25 1.1875 14.25C1.84334 14.25 2.375 14.7817 2.375 15.4375V17.8125C2.375 18.4683 1.84334 19 1.1875 19C0.531662 19 0 18.4683 0 17.8125V15.4375Z" fill="#1A1A18"/>
</svg>
