<svg width="18" height="11" viewBox="0 0 18 11" fill="none" xmlns="http://www.w3.org/2000/svg">
<path fill-rule="evenodd" clip-rule="evenodd" d="M9.02246 10.6044H10.0718C10.0718 10.6044 10.3779 10.5599 10.5528 10.382C10.7058 10.2262 10.7058 9.91478 10.7058 9.91478C10.7058 9.91478 10.684 8.49098 11.3398 8.26852C11.9738 8.0683 12.8046 9.64782 13.6791 10.2485C14.3349 10.7157 14.8378 10.6044 14.8378 10.6044L17.177 10.5822C17.177 10.5822 18.4013 10.5154 17.811 9.53658C17.7673 9.4476 17.4831 8.80244 16.0839 7.48988C14.6191 6.11058 14.8159 6.33305 16.5867 3.9304C17.658 2.48436 18.0952 1.59449 17.964 1.19404C17.8328 0.838096 17.0458 0.927083 17.0458 0.927083L14.4224 0.94933C14.4224 0.94933 14.2256 0.927083 14.0726 1.01607C13.8977 1.1273 13.8102 1.32752 13.8102 1.32752C13.8102 1.32752 13.3949 2.46211 12.8483 3.41872C11.6678 5.44318 11.2087 5.55441 11.0119 5.42093C10.5747 5.13172 10.684 4.24185 10.684 3.61894C10.684 1.66123 10.9682 0.838096 10.1156 0.637875C9.83135 0.571134 9.61273 0.526641 8.89129 0.504395C7.95122 0.504395 7.16419 0.504395 6.70509 0.726862C6.39902 0.88259 6.1804 1.21629 6.31157 1.21629C6.48647 1.23854 6.87998 1.32753 7.07674 1.61673C7.33909 1.99493 7.33909 2.81806 7.33909 2.81806C7.33909 2.81806 7.49212 5.13172 6.96743 5.42093C6.61764 5.62115 6.13667 5.22071 5.0873 3.37423C4.56261 2.43986 4.14723 1.39427 4.14723 1.39427C4.14723 1.39427 4.05978 1.19404 3.92861 1.10506C3.8193 1.01607 3.60068 0.94933 3.3602 0.94933L1.02096 0.971576C1.02096 0.971576 0.64931 0.971577 0.518138 1.14955C0.386965 1.30528 0.518138 1.59449 0.518138 1.59449C0.518138 1.59449 2.48572 6.24406 4.69378 8.57997C6.72695 10.7602 9.02246 10.6044 9.02246 10.6044Z" fill="white"/>
</svg>
